# xmcd
#
# Track frame offsets:
# 150
# 15843
# 34767
# 54223
# 69957
# 91887
# 113208
# 128219
# 144569
# 160539
# 178349
# 193930
# 210291
# 228450
# 243503
# 261838
#
# Disc length: 3688 seconds
#
#
# Revision: 0
# Processed by: cddbd v1.5.1PL0 Copyright (c) Steve Scherf et al.
# Submitted via: FreeRIP 2.70 
#
DISCID=d10e6610
DTITLE=Dream High II
DYEAR=1900
DGENRE=Country
TTITLE0=Nobody knows - Sharp Kevin
TTITLE1=What did I do (to deserve you) - White Bryan
TTITLE2=Let me cry - Mason Mila
TTITLE3=I meant to do that - Brandt Paul
TTITLE4=Tell me I was dreaming - Tritt Travis
TTITLE5=Your Face - Taff Russ
TTITLE6=What I do the best - Montgomery John-Michael
TTITLE7=From here to eternity - Peterson Michael
TTITLE8=Almost ober you - McCann Lila
TTITLE9=Another you another me - Seals Brady
TTITLE10=Where your Road Leads - Shaw Victoria
TTITLE11=I See It now - Lawrence Tracy
TTITLE12=Somewhere Inside - Cummings Chris
TTITLE13=At this moment - McCoy Neal
TTITLE14=One of those Days - Cochran Anita
TTITLE15=Be Honest - Shiver Thrasher
EXTD=
EXTT0=
EXTT1=
EXTT2=
EXTT3=
EXTT4=
EXTT5=
EXTT6=
EXTT7=
EXTT8=
EXTT9=
EXTT10=
EXTT11=
EXTT12=
EXTT13=
EXTT14=
EXTT15=
PLAYORDER=
